<svg id="Layer_1" data-name="Layer 1" xmlns="http://www.w3.org/2000/svg" viewBox="0 0 362.88 356.28"><defs><style>.cls-1{fill:#00a79d;}.cls-2{fill:#fbb042;}.cls-3{fill:#23376d;}</style></defs><title>KLP_logo.preferencial</title><path class="cls-1" d="M78.35,96.65C57.8,89.34,32.68,92,21.79,96.27,33.35,65.72,83.51,7.81,152.19,34.1c0,0-46.4,10-73.83,62.55" transform="translate(0.48)"/><path class="cls-2" d="M95.25,16.84c62.88-32.2,174.06-24.62,219.16,79.65-30.11-11.23-57.36-11.75-88.31,0-22.18-50.42-70.44-83-130.85-79.65" transform="translate(0.48)"/><path class="cls-3" d="M175.63,263c-5.48-5.48-6.25-13.51-6.25-17.06V116.54H138.64V245.06c0,7.64,1.37,25.2,14.19,38C169.07,299.32,184.07,300,191.4,300h69.26V270.8h-68C187.27,270.8,181.18,268.58,175.63,263Z" transform="translate(0.48)"/><path class="cls-3" d="M328.82,168.33c0,10.32-8.79,21.91-26.79,21.91H260.68V146.07H302C320,146.07,328.82,158,328.82,168.33Zm33.58,0c0-30.74-28.54-51.48-63.61-51.48H229.9V259.5h30.73V219.81h38.15C333.87,219.81,362.4,199.07,362.4,168.33Z" transform="translate(0.48)"/><path class="cls-3" d="M29.72,171.16l59.34-54.31h39.33l-72.6,68.3,77.51,74.1h-42L29.72,200.08v59.18H0V116.85H29.72Z" transform="translate(0.48)"/><path class="cls-3" d="M-.18,346.37a8.92,8.92,0,0,0,5,1.33c2.79,0,5.1-1.43,5.1-4.65,0-4.45-10.4-5-10.4-11,0-3.64,3.19-5.91,7.18-5.91a13.54,13.54,0,0,1,4.45.75l-.36,2a9.24,9.24,0,0,0-4.13-.85c-2.34,0-4.91,1-4.91,3.9,0,4.55,10.4,4.58,10.4,11.21,0,4.58-3.93,6.4-7.44,6.4a13,13,0,0,1-5.13-1Z" transform="translate(0.48)"/><path class="cls-3" d="M25.36,332.3c5.36,0,7.73,4.16,7.73,8.68s-2.37,8.68-7.73,8.68-7.73-4.16-7.73-8.68S20,332.3,25.36,332.3Zm0,15.6c3.58,0,5.49-3.09,5.49-6.92s-1.92-6.92-5.49-6.92-5.49,3.09-5.49,6.92S21.78,347.9,25.36,347.9Z" transform="translate(0.48)"/><path class="cls-3" d="M39.39,324.89h2v24.37h-2Z" transform="translate(0.48)"/><path class="cls-3" d="M62,345.36c0,1.27,0,2.57.13,3.9h-2v-3h-.07a5.25,5.25,0,0,1-5.36,3.35c-4.09,0-5.65-2.73-5.65-6.37V332.69h2v10.07c0,3.12,1.1,5.13,3.93,5.13,3.74,0,4.91-3.28,4.91-6v-9.16h2Z" transform="translate(0.48)"/><path class="cls-3" d="M80.34,334.9a9.41,9.41,0,0,0-3.54-.84c-4,0-6.24,2.89-6.24,6.92,0,3.77,2.28,6.92,6,6.92a10.65,10.65,0,0,0,3.74-.75l.2,1.92a12.29,12.29,0,0,1-4.26.58h-.06L75.69,351a10.2,10.2,0,0,1,1.07-.1A2.14,2.14,0,0,1,79.14,353c0,1.92-2.08,2.24-3.57,2.24a10.57,10.57,0,0,1-3.28-.71l.23-1.2a6,6,0,0,0,2.89.94c1,0,1.69-.39,1.69-1.2a1.13,1.13,0,0,0-1.23-1.2,6.41,6.41,0,0,0-1.37.13l.84-2.44c-4.74-.45-7-4.29-7-8.61,0-5.1,3.28-8.68,8.19-8.68a12.4,12.4,0,0,1,4,.65Z" transform="translate(0.48)"/><path class="cls-3" d="M92.88,332.3c5.36,0,7.73,4.16,7.73,8.68s-2.37,8.68-7.73,8.68-7.73-4.16-7.73-8.68S87.52,332.3,92.88,332.3Zm0,15.6c3.57,0,5.49-3.09,5.49-6.92s-1.92-6.92-5.49-6.92-5.49,3.09-5.49,6.92S89.31,347.9,92.88,347.9ZM88.4,330.22c.29-1.4,1.11-2.92,2.63-2.92a6.9,6.9,0,0,1,2,.39,8.28,8.28,0,0,0,1.43.42A1.61,1.61,0,0,0,96,327h1.2c-.32,2.37-1.88,2.86-2.7,2.86a6.32,6.32,0,0,1-2-.42,5.48,5.48,0,0,0-1.53-.39c-.85,0-1.14.39-1.43,1.17Z" transform="translate(0.48)"/><path class="cls-3" d="M118,348.74a13.59,13.59,0,0,1-4.81.91c-5.49,0-7.54-3.7-7.54-8.68s2.79-8.68,7-8.68c4.68,0,6.6,3.77,6.6,8.22v1H107.93c0,3.51,1.88,6.34,5.46,6.34a10.64,10.64,0,0,0,4.65-1.24Zm-1-8.94c0-2.89-1.17-5.75-4.22-5.75s-4.87,3-4.87,5.75Z" transform="translate(0.48)"/><path class="cls-3" d="M124.34,346.86a9.73,9.73,0,0,0,4.32,1c2,0,3.67-1.07,3.67-3,0-3.93-8-3.31-8-8.12,0-3.28,2.66-4.52,5.39-4.52a13.06,13.06,0,0,1,4.09.75l-.2,1.79a9.66,9.66,0,0,0-3.67-.78c-2.11,0-3.58.65-3.58,2.76,0,3.09,8.16,2.7,8.16,8.12,0,3.51-3.28,4.71-5.79,4.71a12.48,12.48,0,0,1-4.65-.78Z" transform="translate(0.48)"/><path class="cls-3" d="M163.26,348.74a13.61,13.61,0,0,1-4.81.91c-5.49,0-7.54-3.7-7.54-8.68s2.79-8.68,7-8.68c4.68,0,6.6,3.77,6.6,8.22v1H153.16c0,3.51,1.88,6.34,5.46,6.34a10.66,10.66,0,0,0,4.65-1.24Zm-1-8.94c0-2.89-1.17-5.75-4.22-5.75s-4.87,3-4.87,5.75Z" transform="translate(0.48)"/><path class="cls-3" d="M190.85,349.26v-11c0-2.34-.88-4.19-3.51-4.19-2.24,0-4.45,1.92-4.45,6v9.16h-2v-11c0-2.34-.88-4.19-3.51-4.19-2.24,0-4.45,1.92-4.45,6v9.16h-2V336.59c0-1.27,0-2.57-.13-3.9h2v2.79l.06,0a5.2,5.2,0,0,1,5.17-3.22,4.17,4.17,0,0,1,4.39,3.51h.06a5.57,5.57,0,0,1,5.3-3.51c3.35,0,5.23,2.34,5.23,5.56v11.41Z" transform="translate(0.48)"/><path class="cls-3" d="M211.42,346.37a8.92,8.92,0,0,0,5,1.33c2.8,0,5.1-1.43,5.1-4.65,0-4.45-10.4-5-10.4-11,0-3.64,3.18-5.91,7.18-5.91a13.56,13.56,0,0,1,4.45.75l-.36,2a9.24,9.24,0,0,0-4.13-.85c-2.34,0-4.91,1-4.91,3.9,0,4.55,10.4,4.58,10.4,11.21,0,4.58-3.93,6.4-7.44,6.4a13,13,0,0,1-5.13-1Z" transform="translate(0.48)"/><path class="cls-3" d="M241.61,348.74a13.6,13.6,0,0,1-4.81.91c-5.49,0-7.54-3.7-7.54-8.68s2.79-8.68,7-8.68c4.68,0,6.6,3.77,6.6,8.22v1H231.5c0,3.51,1.88,6.34,5.46,6.34a10.64,10.64,0,0,0,4.65-1.24Zm-1-8.94c0-2.89-1.17-5.75-4.22-5.75s-4.87,3-4.87,5.75Z" transform="translate(0.48)"/><path class="cls-3" d="M262.31,347.9c0,4.61-2.08,8.38-7.77,8.38a17.14,17.14,0,0,1-5-.88l.16-2a11.24,11.24,0,0,0,4.87,1.17c5.26,0,5.72-3.83,5.72-8.51h-.06a5.13,5.13,0,0,1-5,3.25c-5.29,0-7-4.61-7-8.29,0-5,1.95-8.68,6.82-8.68,2.21,0,3.64.29,5.17,2.27h.07v-1.88h2Zm-7.08-.39c3.7,0,5-3.51,5-6.53,0-4-1.17-6.92-4.91-6.92-3.9,0-4.91,3.71-4.91,6.92S251.75,347.51,255.22,347.51Z" transform="translate(0.48)"/><path class="cls-3" d="M282.62,345.36c0,1.27,0,2.57.13,3.9h-2v-3h-.07a5.25,5.25,0,0,1-5.36,3.35c-4.09,0-5.65-2.73-5.65-6.37V332.69h2v10.07c0,3.12,1.11,5.13,3.93,5.13,3.74,0,4.91-3.28,4.91-6v-9.16h2Z" transform="translate(0.48)"/><path class="cls-3" d="M290.19,336.4a29.59,29.59,0,0,0-.13-3.71h2v3.19h.06c.75-1.85,2.14-3.58,4.26-3.58a6.12,6.12,0,0,1,1.43.2v2.15a5.33,5.33,0,0,0-1.49-.2c-3.25,0-4.13,3.64-4.13,6.63v8.19h-2Z" transform="translate(0.48)"/><path class="cls-3" d="M309.33,332.3c5.36,0,7.73,4.16,7.73,8.68s-2.37,8.68-7.73,8.68-7.73-4.16-7.73-8.68S304,332.3,309.33,332.3Zm0,15.6c3.57,0,5.49-3.09,5.49-6.92s-1.92-6.92-5.49-6.92-5.49,3.09-5.49,6.92S305.76,347.9,309.33,347.9Z" transform="translate(0.48)"/><path class="cls-3" d="M322.1,346.86a9.73,9.73,0,0,0,4.32,1c2,0,3.67-1.07,3.67-3,0-3.93-8-3.31-8-8.12,0-3.28,2.66-4.52,5.39-4.52a13.06,13.06,0,0,1,4.09.75l-.2,1.79a9.66,9.66,0,0,0-3.67-.78c-2.11,0-3.57.65-3.57,2.76,0,3.09,8.16,2.7,8.16,8.12,0,3.51-3.28,4.71-5.79,4.71a12.48,12.48,0,0,1-4.65-.78Z" transform="translate(0.48)"/></svg>